# xmcd
#
# Track frame offsets:
#	150
#	15870
#	26792
#	39925
#	59687
#	75272
#	88292
#	104125
#	117902
#	133162
#	151045
#	164662
#	181790
#	198567
#	215022
#	232807
#	248205
#	267290
#	282757
#	298062
#	312900
#	327657
#
# Disc length: 4607 seconds
#
# Revision: 4
# Processed by: cddbd v1.5.2PL0 Copyright (c) Steve Scherf et al.
# Submitted via: audiograbber 1.83.01
#
DISCID=3e11fd16
DTITLE=Roger Whittaker - A Perfect Day, His Greatest Hits and More
DYEAR=1996
DGENRE=Easy Listening
TTITLE0=A Perfect Day
TTITLE1=New World In The Morning
TTITLE2=Smile
TTITLE3=Hello Young Lovers
TTITLE4=It's Impossible
TTITLE5=There, I've Said It Again
TTITLE6=Raindrops Keep Fallin' On My Head
TTITLE7=Anytime
TTITLE8=Blueberry Hill
TTITLE9=Everything I Do, I Do It For You
TTITLE10=A Whole New World
TTITLE11=Beauty And Tthe Beast
TTITLE12=When I Fall In Love
TTITLE13=Somewhere Out There
TTITLE14=I Will Always Love You
TTITLE15=Ol' Man River
TTITLE16=If Ever I Would Leave You
TTITLE17=Summertime
TTITLE18=Make Believe
TTITLE19=I Don't Believe In If Anymore
TTITLE20=Durham Town
TTITLE21=The Last Farewell
EXTD=
EXTT0=
EXTT1=
EXTT2=
EXTT3=
EXTT4=
EXTT5=
EXTT6=
EXTT7=
EXTT8=
EXTT9=
EXTT10=
EXTT11=
EXTT12=
EXTT13=
EXTT14=
EXTT15=
EXTT16=
EXTT17=
EXTT18=
EXTT19=
EXTT20=
EXTT21=
PLAYORDER=
